<svg xmlns="http://www.w3.org/2000/svg" viewBox="0 0 48 48" height="48" width="48">
  
<g transform="matrix(2,0,0,2,0,0)"><g>
    <path d="M6.34,4.12A9.36,9.36,0,0,0,3.57,6.36a1,1,0,0,0,.11,1.4A1,1,0,0,0,4.33,8a1,1,0,0,0,.76-.35A7.62,7.62,0,0,1,7.28,5.88a1,1,0,1,0-.94-1.76Z" style="fill: #000000"></path>
    <path d="M6.66,2.44A1,1,0,1,0,6,.56,12.51,12.51,0,0,0,.39,4.68a1,1,0,0,0,.19,1.4,1,1,0,0,0,.61.21A1,1,0,0,0,2,5.9,10.43,10.43,0,0,1,6.66,2.44Z" style="fill: #000000"></path>
    <path d="M13.34,5.88a7.49,7.49,0,0,1,2.19,1.77,1,1,0,0,0,1.41.11,1,1,0,0,0,.11-1.4,9.36,9.36,0,0,0-2.77-2.24,1,1,0,0,0-.94,1.76Z" style="fill: #000000"></path>
    <path d="M14,2.44A10.38,10.38,0,0,1,18.64,5.9a1,1,0,0,0,1.41.18,1,1,0,0,0,.18-1.4A12.51,12.51,0,0,0,14.66.56,1,1,0,0,0,14,2.44Z" style="fill: #000000"></path>
    <circle cx="21.81" cy="11.5" r="2" style="fill: #000000"></circle>
    <path d="M22.5,14.16a2.65,2.65,0,0,1-1.37,0,.28.28,0,0,0-.22,0,.26.26,0,0,0-.1.2V18a3.5,3.5,0,0,1-3.5,3.5H16a.25.25,0,0,1-.23-.15.25.25,0,0,1,.05-.27,7.5,7.5,0,1,0-5.53,2.44l7,0a5.5,5.5,0,0,0,5.5-5.5V14.4a.23.23,0,0,0-.1-.2A.26.26,0,0,0,22.5,14.16ZM10.31,18a2,2,0,1,1,2-2A2,2,0,0,1,10.31,18Z" style="fill: #000000"></path>
  </g></g></svg>