<svg xmlns="http://www.w3.org/2000/svg" viewBox="0 0 48 48" height="48" width="48">
  
<g transform="matrix(2,0,0,2,0,0)"><path d="M21.5,2.5H2.5A2.5,2.5,0,0,0,0,5V19a2.5,2.5,0,0,0,2.5,2.5h19A2.5,2.5,0,0,0,24,19V5A2.5,2.5,0,0,0,21.5,2.5Zm0,7.25h-.75V15a.75.75,0,0,1-1.5,0V9.75H18.5a.75.75,0,0,1,0-1.5h3a.75.75,0,0,1,0,1.5ZM16,14.25a.75.75,0,0,1,0,1.5H14a.75.75,0,0,1,0-1.5h.25V9.75H14a.75.75,0,0,1,0-1.5h2a.75.75,0,0,1,0,1.5h-.25v4.5Zm-3.83.41a.74.74,0,0,1-.33,1,.84.84,0,0,1-.34.08.75.75,0,0,1-.67-.41L10,13.68l-.83,1.66a.75.75,0,0,1-.67.41.84.84,0,0,1-.34-.08.74.74,0,0,1-.33-1L9.16,12,7.83,9.34a.75.75,0,0,1,1.34-.68L10,10.32l.83-1.66a.75.75,0,0,1,1.34.68L10.84,12ZM5,11.25a.75.75,0,0,1,0,1.5H3.75V14a.25.25,0,0,0,.25.25H6a.75.75,0,0,1,0,1.5H4A1.76,1.76,0,0,1,2.25,14V10A1.76,1.76,0,0,1,4,8.25H6a.75.75,0,0,1,0,1.5H4a.25.25,0,0,0-.25.25v1.25Z" style="fill: #000000"></path></g></svg>