<svg xmlns="http://www.w3.org/2000/svg" viewBox="0 0 48 48" height="48" width="48"><g transform="matrix(2,0,0,2,0,0)"><defs><style>.a{fill:#000000}</style></defs><path class="a" d="M12 6h1V4h-.838L6.316 2.051l-.632 1.9 2.88.96A7 7 0 0 0 5 11v7h2v-7a5.006 5.006 0 0 1 5-5zm8.634-3.773a1 1 0 0 0-.83-.207l-5 1A1 1 0 0 0 14 4v2a1 1 0 0 0 .8.981l5 1A1 1 0 0 0 21 7V3a1 1 0 0 0-.366-.773z"></path><path class="a" d="M12 7a4 4 0 0 0-4 4v10a1 1 0 0 0 1 1h6a1 1 0 0 0 1-1V11a4 4 0 0 0-4-4zm3 11h-3v-6h3z"></path></g></svg>