<svg xmlns="http://www.w3.org/2000/svg" viewBox="0 0 48 48" height="48" width="48"><g transform="matrix(2,0,0,2,0,0)"><defs><style>.a{fill:#000000}</style></defs><path class="a" d="M10 16.75v-3.383A5.084 5.084 0 0 0 7 18a5 5 0 0 0 10 0c0-2.576 0-5-5-10 1.667 6.666-2 8.75-2 8.75zm-.37-9.286-.8-1.834a7.965 7.965 0 0 0-4.7 6.052L6.1 12a6.051 6.051 0 0 1 3.53-4.536zm5.475-1.834-.8 1.834A6.055 6.055 0 0 1 17.835 12l1.974-.32a7.962 7.962 0 0 0-4.704-6.05z"></path><path class="a" d="m15.273 1.452-.546 1.925A10.035 10.035 0 0 1 22 13h2a12.044 12.044 0 0 0-8.727-11.548zM9.271 3.377l-.544-1.924A12.041 12.041 0 0 0 0 13h2a10.035 10.035 0 0 1 7.271-9.623z"></path></g></svg>