<?xml version="1.0" encoding="UTF-8"?>
<svg width="401px" height="463px" viewBox="0 0 401 463" version="1.1" xmlns="http://www.w3.org/2000/svg" xmlns:xlink="http://www.w3.org/1999/xlink">
    <title>firehydrant</title>
    <g id="Page-1" stroke="none" stroke-width="1" fill="none" fill-rule="evenodd">
        <g id="Artboard" transform="translate(-45.000000, -10.000000)" fill="#000000">
            <g id="firehydrant" transform="translate(45.000000, 10.500000)">
                <path d="M213.5,-1.1914642e-14 L213.500624,22.8967061 C289.246803,27.7218039 351.225636,76.0454896 367.069666,139.498637 L401,139.5 L401,164.5 L0,164.5 L0,139.5 L34.9303339,139.498637 C50.7742939,76.0457686 112.752652,27.722229 188.498377,22.8967698 L188.5,-1.65070675e-14 L213.5,-1.1914642e-14 Z" id="Combined-Shape"></path>
                <path d="M363,186.5 L363,239.5 L401,239.5 L401,320.5 L363,320.5 L363,429.5 L401,429.5 L401,462.5 L5,462.5 L5,429.5 L38,429.5 L38,320.5 L0,320.5 L0,239.5 L38,239.5 L38,186.5 L363,186.5 Z M201,229.5 C169.519769,229.5 144,255.019769 144,286.5 C144,317.980231 169.519769,343.5 201,343.5 C232.480231,343.5 258,317.980231 258,286.5 C258,255.019769 232.480231,229.5 201,229.5 Z" id="Combined-Shape"></path>
            </g>
        </g>
    </g>
</svg>