<svg xmlns="http://www.w3.org/2000/svg" viewBox="0 0 48 48" height="48" width="48">
  
<g transform="matrix(2,0,0,2,0,0)"><path d="M23.25,3,17.19.27a1.93,1.93,0,0,0-1.3-.06L7.88,3a1,1,0,0,1-.56,0L1.16.27a.81.81,0,0,0-.8,0A.82.82,0,0,0,0,1L0,19.84A1.32,1.32,0,0,0,.77,21L6.9,23.73a1.76,1.76,0,0,0,.73.14,2.07,2.07,0,0,0,.57-.08l8-2.81a1,1,0,0,1,.56,0l6.06,2.74h0a.81.81,0,0,0,.8,0A.8.8,0,0,0,24,23V4.18A1.34,1.34,0,0,0,23.25,3ZM2.5,15.51a.25.25,0,0,1,.11-.21.23.23,0,0,1,.23,0L7.4,16.94a.78.78,0,0,0,.5,0l2.52-.87a.25.25,0,0,1,.22,0,.26.26,0,0,1,.11.21v3.43a.26.26,0,0,1-.17.24L8,20.85a1.59,1.59,0,0,1-.94,0L3,19.19a.8.8,0,0,1-.46-.68Zm9.3-1a1.14,1.14,0,0,0-1-.13l-3,1a.25.25,0,0,1-.17,0L2.67,13.66a.26.26,0,0,1-.17-.24V10.55a.26.26,0,0,1,.11-.21.27.27,0,0,1,.23,0l4.38,1.75a.66.66,0,0,0,.28,0l.18,0,4-1a.76.76,0,0,0,.55-.91.75.75,0,0,0-.91-.54L9.75,10V9a.75.75,0,0,0-1.5,0v1.43l-.7.18-1.8-.73V8.37a.75.75,0,1,0-1.5,0v.89L2.66,8.68a.24.24,0,0,1-.16-.23v-4A.31.31,0,0,1,3,4.14L7.11,5.81a1.51,1.51,0,0,0,.94,0l5.87-2a.27.27,0,0,1,.23,0,.26.26,0,0,1,.1.2V9a.75.75,0,0,0,1.5,0V3.3l.31-.14a1.39,1.39,0,0,1,.92.06l4.07,2a.87.87,0,0,1,.45.72v7.93a.25.25,0,0,1-.11.21.24.24,0,0,1-.23,0l-4-1.55a2.07,2.07,0,0,0-1.51.06l-1,.49a1.61,1.61,0,0,0-.88,1.39s0,3.43,0,4.26a.24.24,0,0,1-.17.24l-1,.35a.27.27,0,0,1-.23,0,.25.25,0,0,1-.1-.2V15.42A1.13,1.13,0,0,0,11.8,14.5Zm3.47.1a.25.25,0,0,1,.15-.23l.87-.41a.58.58,0,0,1,.32,0l4.73,1.77a.26.26,0,0,1,.16.23v3.52a.32.32,0,0,1-.47.32L16.53,18l-1,.31a.22.22,0,0,1-.22,0,.25.25,0,0,1-.11-.21ZM23,23.29Z" style="fill: #000000"></path></g></svg>