<svg xmlns="http://www.w3.org/2000/svg" viewBox="0 0 48 48" height="48" width="48">
  
<g transform="matrix(2,0,0,2,0,0)"><g>
    <path d="M18.34.51A2.1,2.1,0,0,0,16.89,0a2,2,0,0,0-1.38.66,2,2,0,0,0,.15,2.83l.64.57a.25.25,0,0,1-.16.44H9.5a2,2,0,0,0-2,1.77.24.24,0,0,0,.08.21.21.21,0,0,0,.21.06A2.37,2.37,0,0,1,9.73,7a2.34,2.34,0,0,1,.83,1.31.26.26,0,0,0,.24.19h5.34a.25.25,0,0,1,.23.16.23.23,0,0,1-.07.27l-.64.58a2,2,0,0,0,2.68,3l5-4.5a2,2,0,0,0,0-3Z" style="fill: #000000"></path>
    <path d="M7.7,8.18A4.83,4.83,0,0,1,5,9H.5a.5.5,0,0,0-.5.5v3a.5.5,0,0,0,.5.5H3.56A5.92,5.92,0,0,0,9.08,9.17a.89.89,0,0,0-.28-1A.91.91,0,0,0,7.7,8.18Z" style="fill: #000000"></path>
    <path d="M5.48,14A6,6,0,0,0,.05,17.82a.87.87,0,0,0,.28,1A.82.82,0,0,0,.85,19a1.09,1.09,0,0,0,.58-.18A4.85,4.85,0,0,1,4.14,18H7.69a5.93,5.93,0,0,0,5.52-3.84.88.88,0,0,0-.28-1,.9.9,0,0,0-1.1,0A4.93,4.93,0,0,1,9.12,14H5.48Z" style="fill: #000000"></path>
    <path d="M7.69,19.18A4.83,4.83,0,0,1,5,20H.5a.5.5,0,0,0-.5.5v3a.5.5,0,0,0,.5.5H5.19c2.48,0,3.06-1.59,3.73-3.43l.15-.4a.87.87,0,0,0-.28-1A.9.9,0,0,0,7.69,19.18Z" style="fill: #000000"></path>
  </g></g></svg>