<svg xmlns="http://www.w3.org/2000/svg" viewBox="0 0 48 48" height="48" width="48"><g transform="matrix(2,0,0,2,0,0)"><defs><style>.a{fill:#000000}</style></defs><path class="a" d="M15.651 16.241a1 1 0 0 0-1.206-.073L13 17.132V13a1 1 0 0 0-1.687-.726C10.592 12.957 7 16.487 7 19a5 5 0 0 0 10 0 3.953 3.953 0 0 0-1.349-2.759zM9 0h6v2H9z"></path><circle class="a" cx="12" cy="4" r="1"></circle><circle class="a" cx="12" cy="7" r="1"></circle><circle class="a" cx="15" cy="4" r="1"></circle><circle class="a" cx="17" cy="7" r="1"></circle><circle class="a" cx="9" cy="4" r="1"></circle><circle class="a" cx="7" cy="7" r="1"></circle><circle class="a" cx="5" cy="10" r="1"></circle><circle class="a" cx="10" cy="10" r="1"></circle><circle class="a" cx="14" cy="10" r="1"></circle><circle class="a" cx="19" cy="10" r="1"></circle></g></svg>